<svg width="881" height="184" viewBox="0 0 881 184" fill="none" xmlns="http://www.w3.org/2000/svg">
<path d="M83.712 181.248C81.664 181.248 80.5547 180.309 80.384 178.432L76.288 153.856C76.288 153.003 75.776 152.576 74.752 152.576H42.24C41.216 152.576 40.704 153.003 40.704 153.856L36.608 178.432C36.4373 180.309 35.328 181.248 33.28 181.248H3.328C1.10933 181.248 0.255998 180.139 0.767998 177.92L38.4 4.86401C38.7413 2.98667 39.8507 2.048 41.728 2.048H76.288C78.1653 2.048 79.2747 2.98667 79.616 4.86401L116.992 177.92L117.248 178.944C117.248 180.48 116.309 181.248 114.432 181.248H83.712ZM45.824 123.392C45.824 124.245 46.1653 124.672 46.848 124.672H69.888C70.7413 124.672 71.0827 124.245 70.912 123.392L58.88 53.504C58.7093 52.992 58.4533 52.736 58.112 52.736C57.7707 52.736 57.5147 52.992 57.344 53.504L45.824 123.392ZM135.02 181.248C134.167 181.248 133.399 180.992 132.716 180.48C132.204 179.797 131.948 179.029 131.948 178.176V5.12001C131.948 4.26668 132.204 3.58401 132.716 3.07201C133.399 2.38934 134.167 2.048 135.02 2.048H164.972C165.825 2.048 166.508 2.38934 167.02 3.07201C167.703 3.58401 168.044 4.26668 168.044 5.12001V148.992C168.044 149.845 168.471 150.272 169.324 150.272H223.084C223.937 150.272 224.62 150.613 225.132 151.296C225.815 151.808 226.156 152.491 226.156 153.344V178.176C226.156 179.029 225.815 179.797 225.132 180.48C224.62 180.992 223.937 181.248 223.084 181.248H135.02ZM244.02 181.248C243.167 181.248 242.399 180.992 241.716 180.48C241.204 179.797 240.948 179.029 240.948 178.176V5.12001C240.948 4.26668 241.204 3.58401 241.716 3.07201C242.399 2.38934 243.167 2.048 244.02 2.048H273.972C274.825 2.048 275.508 2.38934 276.02 3.07201C276.703 3.58401 277.044 4.26668 277.044 5.12001V178.176C277.044 179.029 276.703 179.797 276.02 180.48C275.508 180.992 274.825 181.248 273.972 181.248H244.02ZM348.332 183.296C332.972 183.296 320.599 178.773 311.212 169.728C301.996 160.512 297.388 148.224 297.388 132.864V49.92C297.388 34.7307 301.996 22.6133 311.212 13.568C320.599 4.52268 332.972 1.52588e-05 348.332 1.52588e-05C363.863 1.52588e-05 376.236 4.52268 385.452 13.568C394.839 22.6133 399.532 34.7307 399.532 49.92V52.736C399.532 53.5893 399.191 54.3573 398.508 55.04C397.996 55.552 397.313 55.808 396.46 55.808L366.508 57.088C364.46 57.088 363.436 56.1493 363.436 54.272V47.616C363.436 42.6667 362.071 38.656 359.34 35.584C356.609 32.512 352.94 30.976 348.332 30.976C343.895 30.976 340.311 32.512 337.58 35.584C334.849 38.656 333.484 42.6667 333.484 47.616V135.936C333.484 140.885 334.849 144.896 337.58 147.968C340.311 150.869 343.895 152.32 348.332 152.32C352.94 152.32 356.609 150.869 359.34 147.968C362.071 144.896 363.436 140.885 363.436 135.936V129.024C363.436 128.171 363.692 127.488 364.204 126.976C364.887 126.293 365.655 125.952 366.508 125.952L396.46 127.232C397.313 127.232 397.996 127.573 398.508 128.256C399.191 128.768 399.532 129.451 399.532 130.304V132.864C399.532 148.224 394.839 160.512 385.452 169.728C376.065 178.773 363.692 183.296 348.332 183.296ZM512.65 29.952C512.65 30.8053 512.309 31.5733 511.626 32.256C511.114 32.768 510.431 33.024 509.578 33.024H456.074C455.221 33.024 454.794 33.4507 454.794 34.304V74.752C454.794 75.6053 455.221 76.032 456.074 76.032H486.794C487.647 76.032 488.33 76.3733 488.842 77.056C489.525 77.568 489.866 78.2507 489.866 79.104V103.936C489.866 104.789 489.525 105.557 488.842 106.24C488.33 106.752 487.647 107.008 486.794 107.008H456.074C455.221 107.008 454.794 107.435 454.794 108.288V148.992C454.794 149.845 455.221 150.272 456.074 150.272H509.578C510.431 150.272 511.114 150.613 511.626 151.296C512.309 151.808 512.65 152.491 512.65 153.344V178.176C512.65 179.029 512.309 179.797 511.626 180.48C511.114 180.992 510.431 181.248 509.578 181.248H421.77C420.917 181.248 420.149 180.992 419.466 180.48C418.954 179.797 418.698 179.029 418.698 178.176V5.12001C418.698 4.26668 418.954 3.58401 419.466 3.07201C420.149 2.38934 420.917 2.048 421.77 2.048H509.578C510.431 2.048 511.114 2.38934 511.626 3.07201C512.309 3.58401 512.65 4.26668 512.65 5.12001V29.952ZM528.15 121.088C527.297 121.088 526.529 120.832 525.846 120.32C525.334 119.637 525.078 118.869 525.078 118.016V93.184C525.078 92.3307 525.334 91.648 525.846 91.136C526.529 90.4533 527.297 90.112 528.15 90.112H594.454C595.307 90.112 595.99 90.4533 596.502 91.136C597.185 91.648 597.526 92.3307 597.526 93.184V118.016C597.526 118.869 597.185 119.637 596.502 120.32C595.99 120.832 595.307 121.088 594.454 121.088H528.15ZM618.02 181.248C617.167 181.248 616.399 180.992 615.716 180.48C615.204 179.797 614.948 179.029 614.948 178.176V5.12001C614.948 4.26668 615.204 3.58401 615.716 3.07201C616.399 2.38934 617.167 2.048 618.02 2.048H647.972C648.825 2.048 649.508 2.38934 650.02 3.07201C650.703 3.58401 651.044 4.26668 651.044 5.12001V148.992C651.044 149.845 651.471 150.272 652.324 150.272H706.084C706.937 150.272 707.62 150.613 708.132 151.296C708.815 151.808 709.156 152.491 709.156 153.344V178.176C709.156 179.029 708.815 179.797 708.132 180.48C707.62 180.992 706.937 181.248 706.084 181.248H618.02ZM794.604 181.248C792.727 181.248 791.532 180.395 791.02 178.688L771.308 108.032C770.967 107.349 770.54 107.008 770.028 107.008H761.324C760.471 107.008 760.044 107.435 760.044 108.288V178.176C760.044 179.029 759.703 179.797 759.02 180.48C758.508 180.992 757.825 181.248 756.972 181.248H727.02C726.167 181.248 725.399 180.992 724.716 180.48C724.204 179.797 723.948 179.029 723.948 178.176V5.12001C723.948 4.26668 724.204 3.58401 724.716 3.07201C725.399 2.38934 726.167 2.048 727.02 2.048H778.732C788.119 2.048 796.481 4.35201 803.82 8.96001C811.159 13.3973 816.791 19.712 820.716 27.904C824.812 36.096 826.86 45.4827 826.86 56.064C826.86 66.1333 824.897 75.008 820.972 82.688C817.217 90.368 811.927 96.3413 805.1 100.608C804.759 100.779 804.503 101.035 804.332 101.376C804.161 101.547 804.161 101.803 804.332 102.144L827.884 177.664L828.14 178.688C828.14 180.395 827.201 181.248 825.324 181.248H794.604ZM761.324 33.024C760.471 33.024 760.044 33.4507 760.044 34.304V78.08C760.044 78.9333 760.471 79.36 761.324 79.36H772.844C778.135 79.36 782.401 77.312 785.644 73.216C789.057 68.9493 790.764 63.3173 790.764 56.32C790.764 49.152 789.057 43.52 785.644 39.424C782.401 35.1573 778.135 33.024 772.844 33.024H761.324ZM847.52 181.248C846.667 181.248 845.899 180.992 845.216 180.48C844.704 179.797 844.448 179.029 844.448 178.176V5.12001C844.448 4.26668 844.704 3.58401 845.216 3.07201C845.899 2.38934 846.667 2.048 847.52 2.048H877.472C878.325 2.048 879.008 2.38934 879.52 3.07201C880.203 3.58401 880.544 4.26668 880.544 5.12001V178.176C880.544 179.029 880.203 179.797 879.52 180.48C879.008 180.992 878.325 181.248 877.472 181.248H847.52Z" fill="#163655"/>
</svg>
